<svg width="229" height="58" viewBox="0 0 229 58" fill="none" xmlns="http://www.w3.org/2000/svg">
<path d="M57.7637 14.892V6.77406L48.2668 0.794844V9.41039L28.8818 20.6015L9.49685 9.41039V1.32287L0 7.30209V14.892L28.8818 31.5684L57.7637 14.892Z" fill="#1AB6F9"/>
<path d="M48.2668 28.8066L57.7637 22.8274V41.3235L28.8818 58L0 41.3235V22.2994L9.49685 28.2786V35.8419L28.8818 47.033L48.2668 35.8419V28.8066Z" fill="#1AB6F9"/>
<path d="M33.6992 54.4898H24.0618V35.8873L28.8824 38.1666L33.6992 35.8873V54.4898Z" fill="#1AB6F9"/>
<path d="M48.2667 0.794798L46.8649 0.0160561L38.4811 3.94395L52.7948 12.7115L48.2667 0.794798Z" fill="#1AB6F9"/>
<path d="M73.6045 33.008V8.33894H88.9248V12.32H77.9237V18.6639H87.7776V22.4779H77.9237V29.0231H88.9248V33.0042H73.6045V33.008Z" fill="#222230"/>
<path d="M108.431 16.3355V33.0082H104.617L104.313 30.7821C103.299 32.37 101.141 33.4488 98.9154 33.4488C95.0673 33.4488 92.807 30.8505 92.807 26.7669V16.3355H96.9249V25.3119C96.9249 28.4839 98.1746 29.7679 100.469 29.7679C103.067 29.7679 104.317 28.2484 104.317 25.0764V16.3355H108.431Z" fill="#222230"/>
<path d="M123.144 20.0811H121.624C118.654 20.0811 116.8 21.6651 116.8 24.9055V33.0044H112.682V16.3659H116.564L116.8 18.7971C117.51 17.1446 119.094 16.0316 121.32 16.0316C121.894 16.0316 122.468 16.1 123.144 16.2671V20.0811Z" fill="#222230"/>
<path d="M133.298 15.8643C138.461 15.8643 142.206 19.4427 142.206 24.6394C142.206 29.8361 138.461 33.4145 133.298 33.4145C128.136 33.4145 124.39 29.8361 124.39 24.6394C124.39 19.4427 128.136 15.8643 133.298 15.8643ZM133.298 29.7335C136.132 29.7335 138.088 27.6746 138.088 24.6394C138.088 21.6042 136.132 19.5415 133.298 19.5415C130.464 19.5415 128.504 21.6004 128.504 24.6394C128.504 27.6784 130.464 29.7335 133.298 29.7335Z" fill="#222230"/>
<path d="M144.671 20.6886C144.671 13.0265 149.495 7.93238 156.717 7.93238C162.555 7.93238 166.909 11.3399 167.752 16.6391H163.197C162.354 13.771 159.889 12.0844 156.618 12.0844C152.063 12.0844 149.195 15.3931 149.195 20.6544C149.195 25.8852 152.097 29.2585 156.618 29.2585C159.957 29.2585 162.525 27.5035 163.334 24.7722H167.824C166.878 29.9689 162.358 33.4105 156.519 33.4105C149.328 33.4105 144.671 28.419 144.671 20.6886Z" fill="#222230"/>
<path d="M179.024 15.8643C184.186 15.8643 187.932 19.4427 187.932 24.6394C187.932 29.8361 184.186 33.4145 179.024 33.4145C173.861 33.4145 170.116 29.8361 170.116 24.6394C170.116 19.4427 173.861 15.8643 179.024 15.8643ZM179.024 29.7335C181.857 29.7335 183.814 27.6746 183.814 24.6394C183.814 21.6042 181.857 19.5415 179.024 19.5415C176.19 19.5415 174.23 21.6004 174.23 24.6394C174.23 27.6784 176.19 29.7335 179.024 29.7335Z" fill="#222230"/>
<path d="M191.274 33.0081V7.89845H195.358V33.0043H191.274V33.0081Z" fill="#222230"/>
<path d="M199.741 33.0081V7.89845H203.825V33.0043H199.741V33.0081Z" fill="#222230"/>
<path d="M207.673 10.4965C207.673 9.1138 208.786 8.03115 210.203 8.03115C211.552 8.03115 212.669 9.11 212.669 10.4965C212.669 11.8831 211.556 12.9923 210.203 12.9923C208.786 12.9961 207.673 11.8831 207.673 10.4965ZM208.144 16.3352H212.262V33.0079H208.144V16.3352Z" fill="#222230"/>
<path d="M219.146 27.9443C219.18 29.3954 220.259 30.3071 222.151 30.3071C224.073 30.3071 225.122 29.5322 225.122 28.3166C225.122 27.4733 224.681 26.8655 223.199 26.5274L220.195 25.817C217.19 25.1408 215.739 23.7239 215.739 21.0572C215.739 17.7827 218.504 15.8263 222.352 15.8263C226.098 15.8263 228.628 17.9878 228.662 21.2243H224.745C224.711 19.8074 223.765 18.8957 222.181 18.8957C220.563 18.8957 219.617 19.6365 219.617 20.8862C219.617 21.8321 220.358 22.4399 221.779 22.7742L224.783 23.4846C227.583 24.1266 229 25.4067 229 27.9747C229 31.348 226.132 33.4411 222.014 33.4411C217.862 33.4411 215.23 31.215 215.23 27.9405H219.146V27.9443Z" fill="#222230"/>
<path d="M98.2964 41.2932C100.097 41.2932 101.366 42.3872 101.472 43.9903H100.203C100.097 43.014 99.3752 42.4404 98.2394 42.4404C97.0656 42.4404 96.3172 43.0558 96.3172 44.0435C96.3172 44.7766 96.7047 45.2325 97.586 45.525L99.0143 46.0036C100.336 46.4443 100.952 47.204 100.952 48.393C100.952 50.1138 99.5917 51.2914 97.5746 51.2914C95.6107 51.2914 94.4368 50.3304 94.2887 48.5943H95.5689C95.6638 49.582 96.397 50.1442 97.6126 50.1442C98.8814 50.1442 99.7095 49.4908 99.7095 48.488C99.7095 47.7814 99.3904 47.3939 98.5623 47.1128L97.1491 46.6456C95.7626 46.2049 95.0674 45.3768 95.0674 44.1764C95.0636 42.4518 96.3742 41.2932 98.2964 41.2932Z" fill="#1AB6F9"/>
<path d="M102.836 51.1166L104.359 41.464H105.548L107.539 49.6351L112.078 41.464H113.381L111.847 51.1166H110.62L111.288 46.9114C111.516 45.5249 111.687 44.6284 111.824 44.0662L107.953 51.1128H106.753L105.085 44.0928C105.07 44.6132 104.937 45.7072 104.739 46.9228L104.071 51.1128H102.836V51.1166Z" fill="#1AB6F9"/>
<path d="M113.807 51.1166L118.787 41.464H120.2L122.122 51.1166H120.853L120.386 48.6854H116.409L115.166 51.1166H113.807ZM116.956 47.6066H120.185L119.372 43.4546C119.345 43.2798 119.303 43.0557 119.303 42.919C119.25 43.0519 119.17 43.2532 119.064 43.4546L116.956 47.6066Z" fill="#1AB6F9"/>
<path d="M124.097 51.1166L125.62 41.464H129.145C130.855 41.464 131.949 42.4783 131.949 44.0548C131.949 45.4565 131.067 46.5771 129.612 47.0444L130.934 51.1166H129.639L128.397 47.2837H125.954L125.354 51.1166H124.097ZM126.125 46.1517H128.435C129.795 46.1517 130.649 45.3767 130.649 44.1346C130.649 43.1735 130.023 42.5999 128.955 42.5999H126.699L126.125 46.1517Z" fill="#1AB6F9"/>
<path d="M133.628 41.464H140.542L140.367 42.6264H137.537L136.189 51.1166H134.935L136.284 42.6264H133.454L133.628 41.464Z" fill="#1AB6F9"/>
<path d="M148.968 41.2932C150.768 41.2932 152.037 42.3872 152.143 43.9903H150.875C150.768 43.014 150.046 42.4404 148.911 42.4404C147.737 42.4404 146.988 43.0558 146.988 44.0434C146.988 44.7766 147.376 45.2325 148.257 45.525L149.686 46.0036C151.007 46.4442 151.623 47.204 151.623 48.393C151.623 50.1138 150.263 51.2914 148.246 51.2914C146.282 51.2914 145.108 50.3304 144.964 48.5943H146.244C146.339 49.582 147.072 50.1442 148.288 50.1442C149.556 50.1442 150.384 49.4908 150.384 48.488C150.384 47.7814 150.065 47.3939 149.237 47.1128L147.82 46.6456C146.434 46.2049 145.739 45.3768 145.739 44.1764C145.735 42.4518 147.045 41.2932 148.968 41.2932Z" fill="#1AB6F9"/>
<path d="M153.503 51.1166L155.026 41.464H160.782L160.595 42.6378H156.109L155.615 45.6958H159.661L159.486 46.8317H155.429L154.935 49.9428H159.448L159.262 51.1166H153.503Z" fill="#1AB6F9"/>
<path d="M161.834 51.1166L163.357 41.464H164.611L168.28 49.0045L169.469 41.464H170.723L169.188 51.1166H167.946L164.276 43.5761L163.087 51.1166H161.834Z" fill="#1AB6F9"/>
<path d="M172.113 51.1166L173.637 41.464H176.546C179.095 41.464 180.736 43.2532 180.736 45.6958C180.736 49.0349 178.4 51.1166 175.209 51.1166H172.113ZM174.704 42.6264L173.557 49.9428H175.319C177.709 49.9428 179.418 48.3815 179.418 45.6996C179.418 43.8724 178.283 42.6302 176.349 42.6302H174.704V42.6264Z" fill="#1AB6F9"/>
<path d="M183.566 51.1166H182.313L183.836 41.464H185.09L183.566 51.1166Z" fill="#1AB6F9"/>
<path d="M186.487 51.1166L188.01 41.464H189.264L192.934 49.0045L194.123 41.464H195.376L193.842 51.1166H192.599L188.93 43.5761L187.741 51.1166H186.487Z" fill="#1AB6F9"/>
<path d="M198.249 46.9532C198.249 48.8754 199.343 50.0758 201.106 50.0758C202.906 50.0758 204.122 49.0197 204.403 47.2457L204.456 46.938H201.265L201.451 45.8174H205.805L204.965 51.1318H203.936L204.057 49.8099C203.442 50.6912 202.257 51.28 200.961 51.28C198.519 51.28 196.931 49.5857 196.931 47.0064C196.931 43.7091 199.107 41.3045 202.082 41.3045C204.205 41.3045 205.672 42.5049 205.846 44.3739H204.513C204.327 43.2001 203.404 42.5049 201.975 42.5049C199.799 42.5049 198.249 44.3625 198.249 46.9532Z" fill="#1AB6F9"/>
</svg>
